<?xml version="1.0" encoding="utf-8"?>
<!-- Generator: Adobe Illustrator 23.0.0, SVG Export Plug-In . SVG Version: 6.00 Build 0)  -->
<svg version="1.1" id="Layer_1" xmlns="http://www.w3.org/2000/svg" xmlns:xlink="http://www.w3.org/1999/xlink" x="0px" y="0px"
	 viewBox="0 0 86 34" style="enable-background:new 0 0 86 34;" xml:space="preserve">
<style type="text/css">
	.st0{fill:#FFFFFF;}
	.st1{fill:#4D4D4F;}
	.st2{font-family:'BennetTextFour-Regular';}
	.st3{font-size:16px;}
</style>
<path class="st0" d="M73.1,30.4h-60c-5.4,0-9.8-4.4-9.8-9.8v-8.2c0-5.4,4.4-9.8,9.8-9.8h60c5.4,0,9.8,4.4,9.8,9.8v8.2
	C82.9,26,78.5,30.4,73.1,30.4z"/>
<path class="st1" d="M22.1,29c-1.5,0-2.7-0.9-3-2l-3.5-13.8c-0.1-0.6-0.1-1.1,0.2-1.6l3-5.5c0.4-0.9,1.6-1.5,2.8-1.5h0.6
	c1.2,0,2.2,0.6,2.8,1.5l3,5.3c0.2,0.4,0.3,0.9,0.2,1.5l-3,14C24.9,28.1,23.6,29,22.1,29z M21.6,5.8c-0.9,0-1.7,0.4-2,1.2l-2.7,5.2
	c-0.1,0.3-0.2,0.8-0.1,1.1l3,12.9c0.2,0.9,1.1,1.6,2.2,1.6s2-0.7,2.2-1.6L27,13.1c0.1-0.4,0-0.8-0.1-1.1l-2.7-5
	c-0.3-0.7-1.1-1.1-2-1.1C22.1,5.8,21.6,5.8,21.6,5.8z M22.1,19.1c-0.3,0-0.6-0.2-0.6-0.6v-4.7h-1.6c-0.3,0-0.6-0.2-0.6-0.7
	c0-0.3,0.2-0.7,0.6-0.7h1.6v-1.7c0-0.3,0.2-0.7,0.6-0.7c0.3,0,0.6,0.2,0.6,0.7v1.7h1.7c0.3,0,0.6,0.2,0.6,0.7c0,0.3-0.2,0.7-0.6,0.7
	h-1.7v4.7C22.6,18.9,22.4,19.1,22.1,19.1z"/>
<text transform="matrix(1 0 0 1 32.7316 21.7401)" class="st1 st2 st3">death</text>
</svg>
