<?xml version="1.0" encoding="utf-8"?>
<!-- Generator: Adobe Illustrator 23.0.0, SVG Export Plug-In . SVG Version: 6.00 Build 0)  -->
<svg version="1.1" id="Layer_1" xmlns="http://www.w3.org/2000/svg" xmlns:xlink="http://www.w3.org/1999/xlink" x="0px" y="0px"
	 viewBox="0 0 86 34" style="enable-background:new 0 0 86 34;" xml:space="preserve">
<style type="text/css">
	.st0{fill:#FFFFFF;}
	.st1{fill:#C93A94;stroke:#C93C95;stroke-width:5.000000e-02;stroke-miterlimit:10;}
	.st2{fill:#C93A94;}
	.st3{font-family:'BennetTextFour-Regular';}
	.st4{font-size:16px;}
</style>
<path class="st0" d="M74.1,30.9H11.4c-5.4,0-9.8-4.4-9.8-9.8V13c0-5.4,4.4-9.8,9.8-9.8h62.7c5.4,0,9.8,4.4,9.8,9.8v8.2
	C83.8,26.6,79.4,30.9,74.1,30.9z"/>
<g>
	<path class="st1" d="M29.9,11.3c0-0.2-0.1-0.3-0.3-0.3H14.3c-2.1,0-3.8,1.8-3.8,4c0,2.4,1.8,4,4.5,4h6.7c0.1,0,0.3-0.1,0.3-0.2
		l0.3-0.9l0.3,1c0,0.1,0.2,0.2,0.3,0.2h6.6c0.2,0,0.3-0.1,0.3-0.3c0-0.2-0.1-0.3-0.3-0.3H23l-0.5-1.7c0-0.1-0.2-0.2-0.3-0.2
		c-0.1,0-0.2,0.1-0.3,0.2l-0.5,1.7h-6.5c-2.3,0-3.9-1.4-3.9-3.4c0-1.9,1.4-3.4,3.2-3.4h15.3C29.8,11.6,29.9,11.5,29.9,11.3z"/>
	<path class="st1" d="M22.9,19.2c-0.2,0-0.4-0.1-0.4-0.3l-0.2-0.7l-0.2,0.6c-0.1,0.2-0.2,0.3-0.4,0.3H15l0,0c-2.7,0-4.6-1.7-4.6-4.1
		c0-2.3,1.8-4.1,3.9-4.2h15.3l0,0c0.2,0,0.4,0.2,0.4,0.5c0,0.1-0.1,0.3-0.2,0.4c-0.1,0.1-0.2,0.1-0.3,0H14.2c-0.8,0-1.6,0.3-2.2,1
		c-0.6,0.6-0.9,1.4-0.9,2.3c0,0.9,0.4,1.8,1.1,2.4c0.7,0.6,1.6,0.9,2.7,0.9l0,0h6.4l0.4-1.6c0.1-0.2,0.2-0.3,0.4-0.3l0,0
		c0.2,0,0.4,0.1,0.4,0.3l0.5,1.6h6.4l0,0c0.2,0,0.4,0.2,0.4,0.5s-0.2,0.5-0.4,0.5L22.9,19.2L22.9,19.2z M22.3,17.5l0.4,1.3
		c0,0.1,0.1,0.2,0.2,0.2l0,0h6.6c0.1,0,0.2-0.1,0.2-0.2s-0.1-0.2-0.2-0.2l0,0h-6.6l-0.6-1.8c0-0.1-0.1-0.2-0.2-0.2l0,0
		c-0.1,0-0.1,0.1-0.2,0.2l-0.5,1.8h-6.6l0,0c-1.1,0-2.1-0.3-2.9-1s-1-1.6-1-2.6c0-0.9,0.3-1.8,1-2.5c0.6-0.7,1.5-1,2.3-1h15.4l0,0
		h0.1l0.1-0.1c0-0.1-0.1-0.2-0.2-0.2l0,0H14.3c-2,0-3.7,1.8-3.7,3.9c0,2.3,1.8,3.9,4.4,3.9l0,0h6.7c0.1,0,0.2-0.1,0.2-0.2L22.3,17.5
		z"/>
	<path class="st1" d="M14.6,12.5c-1.4,0-2.5,1.1-2.5,2.5s1.1,2.5,2.5,2.5h2.2c0.2,0,0.3-0.1,0.3-0.3v-4.4c0-0.2-0.1-0.3-0.3-0.3
		L14.6,12.5L14.6,12.5z M16.5,16.9h-1.9c-1.1,0-1.9-0.9-1.9-1.9s0.9-1.9,1.9-1.9h1.9V16.9z"/>
	<path class="st1" d="M16.8,17.6h-2.2c-1.4,0-2.6-1.2-2.6-2.6c0-2.7,2.7-2.6,2.7-2.6h2.1c0.2,0,0.4,0.1,0.4,0.4v4.4
		C17.2,17.4,17.1,17.6,16.8,17.6z M14.5,12.7c-1.3,0.1-2.3,1.1-2.3,2.3c0,1.3,1.1,2.3,2.4,2.3h2.2c0.1,0,0.2-0.1,0.2-0.2v-4.3
		c0-0.1-0.1-0.2-0.2-0.2L14.5,12.7L14.5,12.7z M16.7,17h-2c-1.1,0-2-0.9-2-2s0.9-2,2-2h2V17z M14.6,13.2c-1,0-1.8,0.8-1.8,1.8
		s0.8,1.8,1.8,1.8h1.8v-3.5L14.6,13.2L14.6,13.2z"/>
	<path class="st1" d="M18.7,12.9V17c0,0.2,0.1,0.3,0.3,0.3s0.3-0.1,0.3-0.3v-4.1c0-0.2-0.1-0.3-0.3-0.3S18.7,12.8,18.7,12.9z"/>
	<path class="st1" d="M19,17.5c-0.2,0-0.4-0.1-0.4-0.4V13c0-0.5,0.8-0.5,0.8,0v4.1C19.4,17.3,19.2,17.5,19,17.5z M19,12.8
		c-0.1,0-0.2,0.1-0.2,0.2v4.1c0,0.1,0.1,0.2,0.2,0.2s0.2-0.1,0.2-0.2V13C19.2,12.8,19.1,12.8,19,12.8z"/>
	<path class="st1" d="M20.3,13.5v2.8c0,0.2,0.1,0.3,0.3,0.3c0.1,0,0.3-0.1,0.3-0.3v-2.9c0-0.2-0.1-0.3-0.3-0.3
		C20.4,13.2,20.3,13.4,20.3,13.5z"/>
	<path class="st1" d="M20.6,16.8c-0.2,0-0.4-0.1-0.4-0.4v-2.9c0-0.2,0.2-0.4,0.4-0.4c0.2,0,0.4,0.1,0.4,0.4v2.9
		C20.9,16.6,20.8,16.8,20.6,16.8z M20.6,13.4c-0.1,0-0.2,0.1-0.2,0.2v2.8c0,0.1,0.1,0.2,0.2,0.2s0.2-0.1,0.2-0.2v-2.9
		C20.7,13.4,20.6,13.4,20.6,13.4z"/>
	<path class="st1" d="M24.2,20.2h-1c-0.2,0-0.3,0.2-0.3,0.4v1.2c0,0.9,0.6,1.6,1.4,1.6s1.4-0.8,1.4-1.6S25,20.2,24.2,20.2z
		 M24.2,22.8c-0.4,0-0.7-0.4-0.7-0.8v-0.8h0.7c0.4,0,0.7,0.4,0.7,0.8S24.6,22.8,24.2,22.8z"/>
	<path class="st1" d="M22.1,22.8v-1.2c0-0.2-0.2-0.4-0.3-0.4h-1c-0.8,0-1.4,0.8-1.4,1.6s0.6,1.6,1.4,1.6
		C21.5,24.5,22.1,23.7,22.1,22.8z M21.4,22.8c0,0.5-0.3,0.8-0.7,0.8S20,23.2,20,22.8s0.3-0.8,0.7-0.8h0.7V22.8z"/>
	<path class="st1" d="M22.8,24.6c-0.2-0.2-0.3-0.2-0.5-0.1l0,0l-0.8,0.8c-0.3,0.3-0.4,0.7-0.4,1.2c0,0.9,0.5,1.7,1.4,1.7l0,0l0,0
		c0.8,0,1.4-0.8,1.4-1.6c0-0.4-0.2-0.8-0.3-1.1L22.8,24.6z M23,27.3c-0.3,0.3-0.8,0.3-1-0.1c-0.3-0.4-0.3-0.9,0-1.2l0,0l0.5-0.5
		l0.4,0.6C23.2,26.4,23.2,26.9,23,27.3L23,27.3L23,27.3z"/>
</g>
<g>
	<text transform="matrix(0.9998 -1.749989e-02 1.749989e-02 0.9998 35.9498 22.2139)" class="st2 st3 st4">harm</text>
</g>
</svg>
