<?xml version="1.0" encoding="utf-8"?>
<!-- Generator: Adobe Illustrator 23.0.0, SVG Export Plug-In . SVG Version: 6.00 Build 0)  -->
<svg version="1.1" id="Layer_1" xmlns="http://www.w3.org/2000/svg" xmlns:xlink="http://www.w3.org/1999/xlink" x="0px" y="0px"
	 viewBox="0 0 105 34" style="enable-background:new 0 0 105 34;" xml:space="preserve">
<style type="text/css">
	.st0{fill:#FFFFFF;}
	.st1{fill:#54B848;}
	.st2{fill:none;stroke:#54B848;stroke-width:0.25;stroke-miterlimit:10;}
	.st3{fill:#24B24B;}
	.st4{font-family:'BennetTextFour-Regular';}
	.st5{font-size:16px;}
</style>
<path class="st0" d="M93.3,31.4H11.6c-5.4,0-9.8-4.4-9.8-9.8v-8.2c0-5.4,4.4-9.8,9.8-9.8h81.7c5.4,0,9.8,4.4,9.8,9.8v8.2
	C103.1,27,98.7,31.4,93.3,31.4z"/>
<g>
	<g>
		<g>
			<g>
				<path class="st1" d="M21.4,14h5c1.1,0,2-0.9,2-2c0-1.1-0.8-1.9-1.8-2c-0.2-0.5-0.7-0.9-1.3-1c-0.3-1-1.2-1.7-2.3-1.7
					c-1.2,0-2.2,0.9-2.3,2.1c-1,0.3-1.7,1.2-1.7,2.3C19,12.9,20.1,14,21.4,14z M21.1,9.9c0.2,0,0.3-0.2,0.3-0.4
					c0-0.9,0.8-1.7,1.7-1.7c0.8,0,1.5,0.6,1.7,1.4c0,0.2,0.2,0.3,0.3,0.3c0,0,0,0,0,0c0.5,0,0.8,0.3,1,0.8c0,0.1,0.2,0.3,0.3,0.3
					c0,0,0,0,0.1,0c0.7,0,1.3,0.6,1.3,1.4c0,0.7-0.6,1.4-1.3,1.4h-5c-0.9,0-1.7-0.8-1.7-1.7C19.7,10.8,20.3,10.1,21.1,9.9z"/>
			</g>
			<g>
				<path class="st2" d="M21.4,14h5c1.1,0,2-0.9,2-2c0-1.1-0.8-1.9-1.8-2c-0.2-0.5-0.7-0.9-1.3-1c-0.3-1-1.2-1.7-2.3-1.7
					c-1.2,0-2.2,0.9-2.3,2.1c-1,0.3-1.7,1.2-1.7,2.3C19,12.9,20.1,14,21.4,14z M21.1,9.9c0.2,0,0.3-0.2,0.3-0.4
					c0-0.9,0.8-1.7,1.7-1.7c0.8,0,1.5,0.6,1.7,1.4c0,0.2,0.2,0.3,0.3,0.3c0,0,0,0,0,0c0.5,0,0.8,0.3,1,0.8c0,0.1,0.2,0.3,0.3,0.3
					c0,0,0,0,0.1,0c0.7,0,1.3,0.6,1.3,1.4c0,0.7-0.6,1.4-1.3,1.4h-5c-0.9,0-1.7-0.8-1.7-1.7C19.7,10.8,20.3,10.1,21.1,9.9z"/>
			</g>
		</g>
		<g>
			<g>
				<path class="st1" d="M31.1,18v-0.7c-0.8,0-1.4-0.1-2-0.3c-0.5-0.2-1.1-0.3-1.6-0.3c-0.2-0.6-0.6-1-1.1-1c-0.5,0-0.9,0.5-1.1,1
					c-0.8-0.1-1.6,0-2.5,0.1c-0.8,0.1-1.6,0.4-2.4,0.9c-0.3,0.2-0.7,0.4-1,0.6c-0.4,0.3-0.8,0.5-1.3,0.7c-0.6,0.3-1.1,0.4-1.6,0.4
					c-0.5,0-1-0.2-1.5-0.4V18c0.1-0.1,0.2-0.2,0.3-0.3c0.3,0.4,0.8,0.7,1.3,0.7c0.9,0,1.7-0.8,1.7-1.7c0-0.5-0.2-0.9-0.5-1.2
					c0.1-0.2,0.2-0.5,0.2-0.8c0-0.8-0.7-1.5-1.3-1.7c0,0,0,0,0,0c0-0.7-0.4-1.3-1-1.5c-0.1-0.8-0.8-1.5-1.7-1.5s-1.6,0.7-1.7,1.5
					c-0.6,0.3-1,0.9-1,1.5c0,0,0,0,0,0c-0.7,0.2-1.3,0.8-1.3,1.7c0,0.3,0.1,0.5,0.2,0.8c-0.3,0.3-0.5,0.8-0.5,1.2
					c0,0.9,0.8,1.7,1.7,1.7c0.5,0,1-0.3,1.3-0.7c0.1,0.1,0.2,0.2,0.3,0.3v0.5c-0.5-0.1-1.1,0-1.4,0.1c-0.3,0.1-0.5,0.2-0.8,0.3
					c-0.4,0.2-0.8,0.4-1.1,0.4V20c0.5,0,1-0.2,1.4-0.4c0.2-0.1,0.5-0.2,0.7-0.3c0.3-0.1,0.8-0.2,1.3-0.1v1.9c0,0-0.1,0-0.1,0
					c-0.4,0.1-0.9,0.2-1.3,0.3c-0.7,0.2-1.3,0.3-2,0.3v0.7c0.7,0,1.4-0.2,2.1-0.3c0.4-0.1,0.8-0.2,1.2-0.2c1.4-0.2,2.6,0,3.7,0.5
					c0.7,0.3,1.3,0.8,1.9,1.2c0.8,0.6,1.6,1.1,2.5,1.5c-1.5,0.6-3.2,0.8-4.8,1l-0.2,0c-1.9,0.3-3.8,0.5-6.1,0.6H9.6v0.7h0.3
					c2.3-0.1,4.2-0.3,6.2-0.6l0.2,0c0.7-0.1,1.3-0.2,2-0.3c0.7,0.6,1.6,0.9,2.6,0.9c0.2,0,0.4,0,0.6,0c0.9-0.1,1.7-0.5,2.4-0.8
					c1.1-0.5,2.2-1,3.3-0.7c0.6,0.1,1.1,0.5,1.7,0.8l0.1,0.1c0.2,0.1,0.3,0.2,0.5,0.3c0.5,0.2,1,0.2,1.3,0.2h0.3v-0.7h-0.4
					c-0.4,0-0.8,0-1-0.2c-0.1-0.1-0.2-0.1-0.4-0.2L29.2,26c-0.6-0.4-1.2-0.7-1.9-0.9c-1.4-0.3-2.6,0.3-3.7,0.8
					c-0.8,0.3-1.5,0.7-2.3,0.8c-0.7,0.1-1.5,0-2.1-0.3c1-0.2,2-0.5,2.9-0.9c0.4-0.2,0.2-0.6-0.1-0.7c-0.9-0.2-1.6-0.7-2.4-1.2
					c0,0,0,0,0,0c1.8,0,3.8-0.6,5.4-1.6l0.1,0c1.9-1.3,3.9-2.6,6.1-2.6v-0.7c-1.6,0-3,0.6-4.4,1.4V19c0.6-0.1,1-0.6,1-1.3
					c0-0.1,0-0.2,0-0.3c0.4,0.1,0.8,0.1,1.2,0.3C29.6,17.9,30.3,18,31.1,18z M12.6,16.3c-0.2,0-0.3,0.1-0.3,0.3c0,0.6-0.5,1-1,1
					s-1-0.5-1-1c0-0.4,0.2-0.7,0.5-0.9c0.1-0.1,0.1-0.1,0.2-0.2c0-0.1,0-0.2-0.1-0.3c-0.1-0.1-0.2-0.3-0.2-0.7c0-0.6,0.5-1,1-1
					c0,0,0,0,0.1,0c0.1,0,0.2,0,0.3-0.1c0.1-0.1,0.1-0.2,0.1-0.3c0-0.1,0-0.2,0-0.3c0-0.5,0.3-0.9,0.8-1c0.2,0,0.3-0.2,0.3-0.3
					c0,0,0,0,0,0c0-0.6,0.5-1,1-1c0.6,0,1,0.5,1,1c0,0,0,0,0,0.1c0,0.2,0.1,0.3,0.3,0.3c0.5,0.1,0.8,0.5,0.8,1c0,0.1,0,0.2,0,0.3
					c0,0.1,0,0.2,0.1,0.3c0.1,0.1,0.2,0.1,0.3,0.1c0,0,0,0,0,0c0.6,0,1,0.5,1,1c0,0.3-0.1,0.5-0.2,0.7C17,15.4,17,15.5,17,15.6
					s0.1,0.2,0.2,0.2c0.3,0.2,0.5,0.5,0.5,0.9c0,0.6-0.5,1-1,1s-1-0.5-1-1c0-0.2-0.1-0.3-0.3-0.3c-0.2,0-0.3,0.1-0.3,0.3
					c0,0.6-0.5,1-1,1s-1-0.5-1-1C13,16.5,12.8,16.3,12.6,16.3z M13.6,21.1v-2.8c0.1,0,0.2,0,0.3,0c0.1,0,0.2,0,0.3,0v2.8
					C14.1,21.1,13.8,21.1,13.6,21.1z M23,22.2L23,22.2c-1.5,0.6-3.1,0.8-4.5,0.6c-0.5-0.4-1-0.7-1.6-1c-0.6-0.3-1.3-0.5-2-0.6v-1.4
					c0.4,0.2,0.9,0.3,1.4,0.3c0,0,0,0,0,0c0.6,0,1.3-0.1,1.9-0.5c0.5-0.2,0.9-0.5,1.3-0.7c0.3-0.2,0.6-0.4,1-0.6
					c0.7-0.4,1.5-0.7,2.2-0.8c0.9-0.1,1.6-0.2,2.3-0.1c0,0.1,0,0.2,0,0.4c0,0.7,0.4,1.2,1,1.3v1.4c-0.5,0.3-1,0.6-1.4,0.9l-0.1,0
					c-0.3,0.2-0.9,0.5-0.9,0.5L23,22.2z M26.4,18.4c-0.5,0-0.7-0.2-0.7-0.7c0-0.7,0.4-1.4,0.7-1.4c0.3,0,0.7,0.7,0.7,1.4
					C27.1,18.1,26.9,18.4,26.4,18.4z"/>
			</g>
			<g>
				<path class="st2" d="M31.1,18v-0.7c-0.8,0-1.4-0.1-2-0.3c-0.5-0.2-1.1-0.3-1.6-0.3c-0.2-0.6-0.6-1-1.1-1c-0.5,0-0.9,0.5-1.1,1
					c-0.8-0.1-1.6,0-2.5,0.1c-0.8,0.1-1.6,0.4-2.4,0.9c-0.3,0.2-0.7,0.4-1,0.6c-0.4,0.3-0.8,0.5-1.3,0.7c-0.6,0.3-1.1,0.4-1.6,0.4
					c-0.5,0-1-0.2-1.5-0.4V18c0.1-0.1,0.2-0.2,0.3-0.3c0.3,0.4,0.8,0.7,1.3,0.7c0.9,0,1.7-0.8,1.7-1.7c0-0.5-0.2-0.9-0.5-1.2
					c0.1-0.2,0.2-0.5,0.2-0.8c0-0.8-0.7-1.5-1.3-1.7c0,0,0,0,0,0c0-0.7-0.4-1.3-1-1.5c-0.1-0.8-0.8-1.5-1.7-1.5s-1.6,0.7-1.7,1.5
					c-0.6,0.3-1,0.9-1,1.5c0,0,0,0,0,0c-0.7,0.2-1.3,0.8-1.3,1.7c0,0.3,0.1,0.5,0.2,0.8c-0.3,0.3-0.5,0.8-0.5,1.2
					c0,0.9,0.8,1.7,1.7,1.7c0.5,0,1-0.3,1.3-0.7c0.1,0.1,0.2,0.2,0.3,0.3v0.5c-0.5-0.1-1.1,0-1.4,0.1c-0.3,0.1-0.5,0.2-0.8,0.3
					c-0.4,0.2-0.8,0.4-1.1,0.4V20c0.5,0,1-0.2,1.4-0.4c0.2-0.1,0.5-0.2,0.7-0.3c0.3-0.1,0.8-0.2,1.3-0.1v1.9c0,0-0.1,0-0.1,0
					c-0.4,0.1-0.9,0.2-1.3,0.3c-0.7,0.2-1.3,0.3-2,0.3v0.7c0.7,0,1.4-0.2,2.1-0.3c0.4-0.1,0.8-0.2,1.2-0.2c1.4-0.2,2.6,0,3.7,0.5
					c0.7,0.3,1.3,0.8,1.9,1.2c0.8,0.6,1.6,1.1,2.5,1.5c-1.5,0.6-3.2,0.8-4.8,1l-0.2,0c-1.9,0.3-3.8,0.5-6.1,0.6H9.6v0.7h0.3
					c2.3-0.1,4.2-0.3,6.2-0.6l0.2,0c0.7-0.1,1.3-0.2,2-0.3c0.7,0.6,1.6,0.9,2.6,0.9c0.2,0,0.4,0,0.6,0c0.9-0.1,1.7-0.5,2.4-0.8
					c1.1-0.5,2.2-1,3.3-0.7c0.6,0.1,1.1,0.5,1.7,0.8l0.1,0.1c0.2,0.1,0.3,0.2,0.5,0.3c0.5,0.2,1,0.2,1.3,0.2h0.3v-0.7h-0.4
					c-0.4,0-0.8,0-1-0.2c-0.1-0.1-0.2-0.1-0.4-0.2L29.2,26c-0.6-0.4-1.2-0.7-1.9-0.9c-1.4-0.3-2.6,0.3-3.7,0.8
					c-0.8,0.3-1.5,0.7-2.3,0.8c-0.7,0.1-1.5,0-2.1-0.3c1-0.2,2-0.5,2.9-0.9c0.4-0.2,0.2-0.6-0.1-0.7c-0.9-0.2-1.6-0.7-2.4-1.2
					c0,0,0,0,0,0c1.8,0,3.8-0.6,5.4-1.6l0.1,0c1.9-1.3,3.9-2.6,6.1-2.6v-0.7c-1.6,0-3,0.6-4.4,1.4V19c0.6-0.1,1-0.6,1-1.3
					c0-0.1,0-0.2,0-0.3c0.4,0.1,0.8,0.1,1.2,0.3C29.6,17.9,30.3,18,31.1,18z M12.6,16.3c-0.2,0-0.3,0.1-0.3,0.3c0,0.6-0.5,1-1,1
					s-1-0.5-1-1c0-0.4,0.2-0.7,0.5-0.9c0.1-0.1,0.1-0.1,0.2-0.2c0-0.1,0-0.2-0.1-0.3c-0.1-0.1-0.2-0.3-0.2-0.7c0-0.6,0.5-1,1-1
					c0,0,0,0,0.1,0c0.1,0,0.2,0,0.3-0.1c0.1-0.1,0.1-0.2,0.1-0.3c0-0.1,0-0.2,0-0.3c0-0.5,0.3-0.9,0.8-1c0.2,0,0.3-0.2,0.3-0.3
					c0,0,0,0,0,0c0-0.6,0.5-1,1-1c0.6,0,1,0.5,1,1c0,0,0,0,0,0.1c0,0.2,0.1,0.3,0.3,0.3c0.5,0.1,0.8,0.5,0.8,1c0,0.1,0,0.2,0,0.3
					c0,0.1,0,0.2,0.1,0.3c0.1,0.1,0.2,0.1,0.3,0.1c0,0,0,0,0,0c0.6,0,1,0.5,1,1c0,0.3-0.1,0.5-0.2,0.7C17,15.4,17,15.5,17,15.6
					s0.1,0.2,0.2,0.2c0.3,0.2,0.5,0.5,0.5,0.9c0,0.6-0.5,1-1,1s-1-0.5-1-1c0-0.2-0.1-0.3-0.3-0.3c-0.2,0-0.3,0.1-0.3,0.3
					c0,0.6-0.5,1-1,1s-1-0.5-1-1C13,16.5,12.8,16.3,12.6,16.3z M13.6,21.1v-2.8c0.1,0,0.2,0,0.3,0c0.1,0,0.2,0,0.3,0v2.8
					C14.1,21.1,13.8,21.1,13.6,21.1z M23,22.2L23,22.2c-1.5,0.6-3.1,0.8-4.5,0.6c-0.5-0.4-1-0.7-1.6-1c-0.6-0.3-1.3-0.5-2-0.6v-1.4
					c0.4,0.2,0.9,0.3,1.4,0.3c0,0,0,0,0,0c0.6,0,1.3-0.1,1.9-0.5c0.5-0.2,0.9-0.5,1.3-0.7c0.3-0.2,0.6-0.4,1-0.6
					c0.7-0.4,1.5-0.7,2.2-0.8c0.9-0.1,1.6-0.2,2.3-0.1c0,0.1,0,0.2,0,0.4c0,0.7,0.4,1.2,1,1.3v1.4c-0.5,0.3-1,0.6-1.4,0.9l-0.1,0
					c-0.3,0.2-0.9,0.5-0.9,0.5L23,22.2z M26.4,18.4c-0.5,0-0.7-0.2-0.7-0.7c0-0.7,0.4-1.4,0.7-1.4c0.3,0,0.7,0.7,0.7,1.4
					C27.1,18.1,26.9,18.4,26.4,18.4z"/>
			</g>
		</g>
	</g>
</g>
<text transform="matrix(1 0 0 1 35.6038 22.7805)" class="st3 st4 st5">solitude</text>
</svg>
