<?xml version="1.0" encoding="utf-8"?>
<!-- Generator: Adobe Illustrator 23.0.0, SVG Export Plug-In . SVG Version: 6.00 Build 0)  -->
<svg version="1.1" id="Layer_1" xmlns="http://www.w3.org/2000/svg" xmlns:xlink="http://www.w3.org/1999/xlink" x="0px" y="0px"
	 viewBox="0 0 77 34" style="enable-background:new 0 0 77 34;" xml:space="preserve">
<style type="text/css">
	.st0{fill:#FFFFFF;}
	.st1{fill:#EC1C24;stroke:#EC1C24;stroke-width:0.15;stroke-miterlimit:10;}
	.st2{fill:#EC1C24;}
	.st3{font-family:'BennetTextFour-Regular';}
	.st4{font-size:16px;}
</style>
<path class="st0" d="M65.2,31.1h-53c-5.4,0-9.8-4.4-9.8-9.8v-8.2c0-5.4,4.4-9.8,9.8-9.8h53c5.4,0,9.8,4.4,9.8,9.8v8.2
	C74.9,26.7,70.5,31.1,65.2,31.1z"/>
<path class="st1" d="M23.7,8.1c0.2-1.1-0.3-1.9-1-2.3c-0.7-0.2-1.4-0.1-1.8,0.3c-0.5-0.5-1.1-0.7-1.8-0.3c-0.7,0.3-1.4,1.1-1,2.3
	c0.5,1.8,2.6,2.7,2.7,2.8h0.1H21C21,10.9,23.3,9.9,23.7,8.1z M20.9,10.2c-0.5-0.2-1.9-1-2.3-2.3c-0.1-0.7,0.2-1.2,0.7-1.5
	c0.1,0,0.2-0.1,0.3-0.1c0.3,0,0.7,0.2,0.9,0.6c0.1,0.1,0.1,0.2,0.3,0.2s0.2-0.1,0.3-0.2c0.3-0.6,0.9-0.7,1.2-0.5
	c0.5,0.2,0.8,0.7,0.7,1.5C22.8,9.2,21.4,10,20.9,10.2z"/>
<g>
	<path class="st2" d="M26.8,16.2c-0.2-0.9-0.8-3.2-1.1-4.1c0-0.1-0.2-0.2-0.2-0.1l-3.6,0.8c-0.1,0-0.2,0.1-0.2,0.2
		c0,0.9,0.5,3.3,0.7,4.2c0.7,3,2.1,5.2,3.4,5.3l1.2,5.3l-1.5,0.3c-0.1,0-0.2,0.2-0.2,0.3c0,0.1,0.1,0.2,0.2,0.2l0,0l3.4-0.8
		c0.1,0,0.2-0.2,0.2-0.3s-0.2-0.2-0.3-0.2l-1.5,0.3L26,22.4C27.2,21.8,27.6,19.2,26.8,16.2z M25.3,12.6c0.3,0.8,0.7,2.4,1,3.4
		c-0.1,0.1-0.3,0.2-0.6,0.2c-0.5,0.1-0.7,0-1-0.1c-0.3-0.1-0.7-0.3-1.4-0.2c-0.3,0.1-0.6,0.2-0.8,0.5c-0.2-1-0.5-2.3-0.5-2.9
		L25.3,12.6z M22.7,17.1c0-0.1,0-0.1,0-0.2c0.2-0.2,0.3-0.5,0.8-0.6c0.5-0.1,0.7,0,1,0.1c0.3,0.1,0.7,0.3,1.4,0.2
		c0.2,0,0.5-0.1,0.6-0.2c0.7,3,0.2,5.3-0.7,5.5C24.9,22.1,23.4,20.2,22.7,17.1z"/>
	<path class="st2" d="M25.4,28.8L25.4,28.8c-0.3,0-0.6-0.1-0.6-0.5c0-0.2,0.1-0.6,0.5-0.6l1.2-0.2l-1.1-4.8
		c-1.4-0.2-2.7-2.4-3.4-5.4c-0.2-0.9-0.6-3.3-0.7-4.2c0-0.2,0.1-0.5,0.5-0.6l3.6-0.8c0.2-0.1,0.5,0.1,0.6,0.3c0.3,0.9,1,3.2,1.1,4.1
		c0.7,3,0.3,5.5-0.7,6.3l1.1,4.8l1.1-0.3c0.1,0,0.2,0,0.5,0.1c0.2,0.1,0.2,0.2,0.2,0.3s0,0.2-0.1,0.3C29.1,27.9,29,28,28.9,28
		L25.4,28.8z M27,27.9l-1.7,0.5L27,27.9L27,27.9z M25.7,22.1h0.1l0.1-0.1c1-0.6,1.2-3,0.7-5.9l0,0c0-0.1,0-0.1-0.1-0.2l0,0l0.1,0.3
		C27.2,19.3,26.9,21.9,25.7,22.1C25.8,22.1,25.7,22.1,25.7,22.1z M22.9,17L22.9,17L22.9,17v0.1c0.6,2.5,1.6,4.1,2.3,4.5
		c0.1,0.1,0.2,0.1,0.3,0.1c0.6-0.1,1-2.1,0.6-4.8c-0.1,0-0.2,0.1-0.3,0.1c-0.7,0.1-1.1,0-1.5-0.2l0,0c-0.2-0.1-0.5-0.2-0.8-0.1
		C23.3,16.6,23.1,16.7,22.9,17z M22.4,16.7L22.4,16.7L22.4,16.7c0.1-0.1,0.2-0.2,0.3-0.3l0,0L22.4,16.7z M23.7,15.5
		c0.5,0,0.8,0.1,1,0.2l0,0c0.2,0.1,0.5,0.2,0.8,0.1c0.1,0,0.2-0.1,0.3-0.1c-0.2-1-0.6-2.3-0.8-2.9l-2.8,0.7c0.1,0.7,0.2,1.6,0.3,2.4
		c0.1-0.1,0.3-0.2,0.6-0.2C23.5,15.5,23.6,15.5,23.7,15.5z M26.3,15.4c0,0.1,0.1,0.3,0.1,0.5v0.1C26.4,15.7,26.4,15.5,26.3,15.4z
		 M25.4,12.2L21.8,13l0,0L25.4,12.2l0.1,0.2c0,0.1,0,0.1,0.1,0.2C25.5,12.4,25.5,12.3,25.4,12.2z"/>
</g>
<g>
	<path class="st2" d="M13.8,27.3c-0.1,0-0.2,0-0.3,0.2c0,0.1,0,0.2,0.2,0.3l3.4,0.8l0,0c0.1,0,0.2-0.1,0.2-0.2c0-0.1,0-0.2-0.2-0.3
		l-1.5-0.3l1.2-5.3c1.2,0,2.6-2.3,3.4-5.3c0.2-0.9,0.6-3.3,0.7-4.2c0-0.1-0.1-0.2-0.2-0.2L17.1,12c-0.1,0-0.2,0-0.2,0.1
		c-0.3,0.9-1,3.2-1.1,4.1c-0.3,1.5-0.5,2.9-0.2,4.1c0.1,1.1,0.6,1.8,1,2l-1.1,5.3L13.8,27.3z M17.2,12.6l3.2,0.7
		c0,0.8-0.2,2-0.5,2.9c-0.2-0.2-0.5-0.3-0.8-0.5c-0.6-0.1-1,0.1-1.4,0.2c-0.3,0.1-0.6,0.2-1,0.1c-0.2-0.1-0.5-0.1-0.6-0.2
		C16.5,14.9,17,13.3,17.2,12.6z M16,20.2c-0.1-1,0-2.4,0.2-3.8c0.1,0.1,0.3,0.2,0.6,0.2c0.6,0.1,1,0,1.4-0.2c0.3-0.1,0.6-0.2,1-0.1
		c0.5,0.1,0.6,0.3,0.8,0.6c0,0.1,0,0.1,0,0.2c-0.7,3.2-2.1,5.1-2.9,4.8C16.4,21.8,16.1,21.2,16,20.2z"/>
	<path class="st2" d="M17.2,28.8h-0.1L13.7,28c-0.1,0-0.2-0.1-0.3-0.2c-0.1-0.1-0.1-0.2-0.1-0.3c0-0.1,0.1-0.2,0.2-0.3
		s0.2-0.1,0.5-0.1l1.1,0.2l1.1-4.8c-0.6-0.3-0.9-1.1-1-2.1c-0.1-1.1,0-2.7,0.2-4.2c0.2-0.8,0.8-3.2,1.1-4.1c0-0.2,0.2-0.3,0.6-0.3
		l3.6,0.8c0.2,0,0.5,0.2,0.5,0.5c0,1-0.5,3.3-0.7,4.2c-0.7,3-2,5.2-3.4,5.4L16,27.3l1.2,0.2c0.1,0,0.2,0.1,0.3,0.2
		c0.1,0.1,0.1,0.2,0.1,0.5C17.7,28.7,17.4,28.8,17.2,28.8z M15.4,27.9l1.7,0.5L15.4,27.9L15.4,27.9z M13.8,27.5L13.8,27.5l1.2,0.2
		L13.8,27.5L13.8,27.5z M15.9,16.6c-0.2,1.4-0.3,2.6-0.2,3.6c0.1,1,0.5,1.7,0.9,1.9l0.2,0.1l-1,4.4l1-4.4h0.1h-0.1
		c-0.6-0.1-1-0.9-1.1-1.9C15.5,19.3,15.5,18.1,15.9,16.6z M16.3,16.8c-0.2,1.4-0.3,2.5-0.1,3.4l0,0c0.1,1,0.5,1.5,0.7,1.6
		c0.6,0.1,1.9-1.4,2.6-4.6v-0.1l0,0c-0.1-0.2-0.3-0.3-0.6-0.3c-0.3-0.1-0.5,0-0.8,0.1l0,0c-0.3,0.1-0.8,0.3-1.5,0.2
		C16.5,16.8,16.4,16.8,16.3,16.8z M19.1,16.1c0.5,0.1,0.7,0.3,0.9,0.7l0.1,0.1V17c0,0,0,0,0,0.1v0.1c-0.2,1.2-0.7,2.4-1.1,3.3
		c0.5-0.9,0.9-2,1.2-3.3c0-0.1,0-0.2,0.1-0.5l-0.6-0.3C19.6,16.3,19.3,16.1,19.1,16.1L19.1,16.1z M16,16.1l0.3,0.2
		c0.1,0.1,0.2,0.1,0.3,0.1c-0.2-0.1-0.3-0.2-0.5-0.2L16,16.1C16,15.9,16,15.9,16,16.1z M16.5,15.7c0.1,0.1,0.2,0.1,0.3,0.1
		c0.3,0.1,0.6,0,0.8-0.1h0.1c0.3-0.1,0.8-0.3,1.5-0.2c0.2,0,0.5,0.1,0.6,0.2c0.1-0.9,0.3-1.7,0.3-2.4l-2.7-0.7
		C17.1,13.7,16.8,14.9,16.5,15.7z M17.1,12.2c-0.2,0.6-0.7,1.9-0.9,3c0.2-1,0.6-2.1,0.9-2.8V12.2L17.1,12.2z M18,12.4l2.7,0.6l0,0
		L18,12.4z"/>
</g>
<g>
	<path class="st2" d="M28.9,8.3c-0.1,0-0.2,0-0.3,0.1L27,11.3c0,0.1,0,0.2,0.1,0.2h0.1c0.1,0,0.2,0,0.2-0.1L29,8.5
		C29.1,8.5,29,8.4,28.9,8.3z"/>
	<path class="st2" d="M27.3,11.8c0,0-0.1,0-0.2-0.1c-0.2-0.1-0.3-0.3-0.2-0.6l1.6-2.9c0.1-0.2,0.5-0.3,0.7-0.2l0,0
		c0.2,0.1,0.3,0.3,0.2,0.6l-1.6,3C27.7,11.8,27.6,11.8,27.3,11.8z M28.8,8.5L28.8,8.5l-0.6,1L28.8,8.5z"/>
</g>
<g>
	<path class="st2" d="M27.9,13.6c-0.1,0.1-0.1,0.2-0.1,0.3V14c0,0.1,0.1,0.1,0.2,0.1h0.1l3.6-1.6c0.1-0.1,0.2-0.2,0.1-0.3
		c0,0,0-0.1-0.1-0.1C31.6,12,31.5,12,31.5,12L27.9,13.6z"/>
	<path class="st2" d="M28,14.4c-0.2,0-0.3-0.1-0.3-0.2c0,0-0.1-0.1-0.1-0.2c-0.1-0.2,0-0.6,0.2-0.7l3.6-1.6c0.2-0.1,0.5-0.1,0.6,0.1
		l0.1,0.1c0.1,0.2,0,0.6-0.2,0.7l-3.6,1.6C28.2,14.4,28.1,14.4,28,14.4z M28,13.8L28,13.8l3.6-1.6l0,0L28,13.8L28,13.8z"/>
</g>
<g>
	<path class="st2" d="M14.8,11.4c0,0.1,0.1,0.1,0.2,0.1h0.1c0.1,0,0.2-0.2,0.1-0.3l-1.6-2.9c0-0.1-0.2-0.1-0.3-0.1
		c-0.1,0-0.2,0.2-0.1,0.3L14.8,11.4z"/>
	<path class="st2" d="M15.1,11.8c-0.2,0-0.3-0.1-0.5-0.2l-1.6-3c-0.1-0.1-0.1-0.2,0-0.3c0.1-0.1,0.1-0.1,0.3-0.2c0.1,0,0.2,0,0.5,0
		c0.1,0,0.2,0.1,0.2,0.2l1.6,2.9c0.1,0.2,0,0.5-0.2,0.6S15.1,11.8,15.1,11.8z M15.1,11.3L15.1,11.3L15.1,11.3l-1.6-2.9L15.1,11.3z"
		/>
</g>
<g>
	<path class="st2" d="M11,12.4l3.6,1.6h0.1c0.1,0,0.1,0,0.2-0.1v-0.1c0-0.1,0-0.2-0.1-0.3l-3.7-1.6c-0.1-0.1-0.2,0-0.2,0.1l-0.1,0.1
		C10.8,12.2,10.8,12.4,11,12.4z"/>
	<path class="st2" d="M14.7,14.4c0,0-0.1,0-0.2-0.1l-3.6-1.6c-0.2-0.1-0.3-0.3-0.2-0.7v-0.1l0.1-0.1c0.1-0.1,0.3-0.2,0.6-0.1
		l3.6,1.6c0.1,0,0.2,0.1,0.2,0.2c0,0.1,0,0.2,0,0.3s-0.1,0.1-0.1,0.2C15.1,14.2,14.8,14.4,14.7,14.4z M14.7,13.8L14.7,13.8l-3.6-1.6
		l0,0"/>
</g>
<text transform="matrix(1 0 0 1 36.8947 22.4526)" class="st2 st3 st4">love</text>
</svg>
