<?xml version="1.0" encoding="utf-8"?>
<!-- Generator: Adobe Illustrator 23.0.0, SVG Export Plug-In . SVG Version: 6.00 Build 0)  -->
<svg version="1.1" id="Layer_1" xmlns="http://www.w3.org/2000/svg" xmlns:xlink="http://www.w3.org/1999/xlink" x="0px" y="0px"
	 viewBox="0 0 114 34" style="enable-background:new 0 0 114 34;" xml:space="preserve">
<style type="text/css">
	.st0{fill:#FFFFFF;}
	.st1{fill:#F2AF1C;}
	.st2{fill:none;stroke:#F2AF1C;stroke-width:0.25;stroke-miterlimit:10;}
	.st3{font-family:'BennetTextFour-Regular';}
	.st4{font-size:16px;}
	.st5{fill:#4D4D4F;}
</style>
<path class="st0" d="M102,31.6H12c-5.4,0-9.8-4.4-9.8-9.8v-8.2c0-5.4,4.4-9.8,9.8-9.8h90c5.4,0,9.8,4.4,9.8,9.8v8.2
	C111.8,27.2,107.4,31.6,102,31.6z"/>
<g>
	<g>
		<g>
			<g>
				<g>
					<g>
						<path class="st1" d="M14.2,21h5.2c0.2,0,0.3-0.1,0.3-0.3v-3.9c0-0.2-0.1-0.3-0.3-0.3h-5.2c-0.2,0-0.3,0.1-0.3,0.3v3.9
							C13.9,20.9,14.1,21,14.2,21z M14.6,19h2v1.3h-2V19z M17.2,20.3V19h2v1.3H17.2z M19.1,18.4h-2v-1.3h2V18.4z M16.5,17.1v1.3h-2
							v-1.3H16.5z"/>
					</g>
					<g>
						<path class="st2" d="M14.2,21h5.2c0.2,0,0.3-0.1,0.3-0.3v-3.9c0-0.2-0.1-0.3-0.3-0.3h-5.2c-0.2,0-0.3,0.1-0.3,0.3v3.9
							C13.9,20.9,14.1,21,14.2,21z M14.6,19h2v1.3h-2V19z M17.2,20.3V19h2v1.3H17.2z M19.1,18.4h-2v-1.3h2V18.4z M16.5,17.1v1.3h-2
							v-1.3H16.5z"/>
					</g>
				</g>
			</g>
		</g>
		<g>
			<g>
				<g>
					<path class="st1" d="M7.7,24.9c0,1.9,5.1,2.9,9.8,2.9s9.8-1,9.8-2.9c0-1.1-1.7-1.8-3.2-2.2L24,22.5c-0.2-0.6-0.7-1-1.3-1.1
						l0.3-3.6h1c0.1,0,0.2-0.1,0.3-0.2c0.1-0.1,0-0.3,0-0.4l-7.2-8.8c-0.1-0.2-0.4-0.2-0.5,0l-2.7,3.3l-0.1-2.1l-2.6,0l0.1,5.3
						l-1.9,2.3c-0.1,0.1-0.1,0.2,0,0.4c0.1,0.1,0.2,0.2,0.3,0.2h0.7l0.4,5C9.3,23.1,7.7,23.8,7.7,24.9z M26.6,24.9
						c0,0.9-3.5,2.3-9.1,2.3s-9.1-1.3-9.1-2.3c0-0.4,0.7-1,2.5-1.5l0.1,1.5c0,0.2,0.2,0.3,0.3,0.3h6.8H24c0.2,0,0.3-0.1,0.3-0.3
						v-1.4l0,0C26,24,26.6,24.5,26.6,24.9z M23.4,22.7l0.3,0.7c0,0,0,0.1,0,0.1v1.1h-5.2v-1c0-0.1,0-0.2,0.1-0.2l0.3-0.3
						C18.9,23,19,23,19.1,23h0.3c0.2,0,0.4,0.1,0.6,0.2l0.7,0.4c0.1,0.1,0.2,0.1,0.3,0c0.1,0,0.2-0.1,0.2-0.2l0.3-0.7l0,0
						c0,0,0,0,0,0v0l0,0l0,0l0,0l0,0c0,0,0-0.1,0-0.1l0,0c0,0,0.1-0.1,0.1-0.1l0,0c0,0,0.1-0.1,0.1-0.1l0,0c0,0,0.1-0.1,0.1-0.1
						c0,0,0,0,0.1,0c0,0,0.1,0,0.1-0.1c0,0,0.1,0,0.1,0h0c0.1,0,0.2-0.1,0.3-0.1l0,0h0C22.9,22,23.2,22.3,23.4,22.7z M12,11.1v-0.8
						h1.3v2.2l-0.7,0.8L12,14.1V11.1z M11.9,15.2L11.9,15.2l2-2.4l0,0l3-3.7l6.5,8h-1.4L17.1,11c-0.1-0.2-0.4-0.2-0.5,0l-4.8,6.1
						h-1.4L11.9,15.2z M12,17.7c0.1,0,0.2,0,0.3-0.1l4.6-5.9l4.6,5.9c0.1,0.1,0.2,0.1,0.3,0.1h0.6L22,21.4c0,0-0.1,0-0.1,0
						c0,0-0.1,0-0.1,0c-0.2,0.1-0.3,0.1-0.4,0.2c0,0,0,0,0,0c-0.1,0-0.1,0.1-0.2,0.1l0,0c0,0-0.1,0.1-0.1,0.1l0,0
						c0,0.1-0.1,0.1-0.1,0.2c0,0,0,0,0,0.1c0,0.1-0.1,0.1-0.1,0.2l-0.2,0.4l-0.3-0.2c-0.3-0.2-0.6-0.3-0.9-0.3H19
						c-0.3,0-0.5,0.1-0.7,0.3l-0.3,0.3c-0.2,0.2-0.3,0.4-0.3,0.7v1h-6.2L11,17.8L12,17.7L12,17.7L12,17.7z"/>
				</g>
				<g>
					<path class="st2" d="M7.7,24.9c0,1.9,5.1,2.9,9.8,2.9s9.8-1,9.8-2.9c0-1.1-1.7-1.8-3.2-2.2L24,22.5c-0.2-0.6-0.7-1-1.3-1.1
						l0.3-3.6h1c0.1,0,0.2-0.1,0.3-0.2c0.1-0.1,0-0.3,0-0.4l-7.2-8.8c-0.1-0.2-0.4-0.2-0.5,0l-2.7,3.3l-0.1-2.1l-2.6,0l0.1,5.3
						l-1.9,2.3c-0.1,0.1-0.1,0.2,0,0.4c0.1,0.1,0.2,0.2,0.3,0.2h0.7l0.4,5C9.3,23.1,7.7,23.8,7.7,24.9z M26.6,24.9
						c0,0.9-3.5,2.3-9.1,2.3s-9.1-1.3-9.1-2.3c0-0.4,0.7-1,2.5-1.5l0.1,1.5c0,0.2,0.2,0.3,0.3,0.3h6.8H24c0.2,0,0.3-0.1,0.3-0.3
						v-1.4l0,0C26,24,26.6,24.5,26.6,24.9z M23.4,22.7l0.3,0.7c0,0,0,0.1,0,0.1v1.1h-5.2v-1c0-0.1,0-0.2,0.1-0.2l0.3-0.3
						C18.9,23,19,23,19.1,23h0.3c0.2,0,0.4,0.1,0.6,0.2l0.7,0.4c0.1,0.1,0.2,0.1,0.3,0c0.1,0,0.2-0.1,0.2-0.2l0.3-0.7l0,0
						c0,0,0,0,0,0v0l0,0l0,0l0,0l0,0c0,0,0-0.1,0-0.1l0,0c0,0,0.1-0.1,0.1-0.1l0,0c0,0,0.1-0.1,0.1-0.1l0,0c0,0,0.1-0.1,0.1-0.1
						c0,0,0,0,0.1,0c0,0,0.1,0,0.1-0.1c0,0,0.1,0,0.1,0h0c0.1,0,0.2-0.1,0.3-0.1l0,0h0C22.9,22,23.2,22.3,23.4,22.7z M12,11.1v-0.8
						h1.3v2.2l-0.7,0.8L12,14.1V11.1z M11.9,15.2L11.9,15.2l2-2.4l0,0l3-3.7l6.5,8h-1.4L17.1,11c-0.1-0.2-0.4-0.2-0.5,0l-4.8,6.1
						h-1.4L11.9,15.2z M12,17.7c0.1,0,0.2,0,0.3-0.1l4.6-5.9l4.6,5.9c0.1,0.1,0.2,0.1,0.3,0.1h0.6L22,21.4c0,0-0.1,0-0.1,0
						c0,0-0.1,0-0.1,0c-0.2,0.1-0.3,0.1-0.4,0.2c0,0,0,0,0,0c-0.1,0-0.1,0.1-0.2,0.1l0,0c0,0-0.1,0.1-0.1,0.1l0,0
						c0,0.1-0.1,0.1-0.1,0.2c0,0,0,0,0,0.1c0,0.1-0.1,0.1-0.1,0.2l-0.2,0.4l-0.3-0.2c-0.3-0.2-0.6-0.3-0.9-0.3H19
						c-0.3,0-0.5,0.1-0.7,0.3l-0.3,0.3c-0.2,0.2-0.3,0.4-0.3,0.7v1h-6.2L11,17.8L12,17.7L12,17.7L12,17.7z"/>
				</g>
			</g>
		</g>
	</g>
</g>
<text transform="matrix(1 0 0 1 29.8885 23.2997)" class="st1 st3 st4">childhood</text>
<path class="st0" d="M186.3,31.4h-60c-5.4,0-9.8-4.4-9.8-9.8v-8.2c0-5.4,4.4-9.8,9.8-9.8h60c5.4,0,9.8,4.4,9.8,9.8v8.2
	C196.1,27,191.7,31.4,186.3,31.4z"/>
<path class="st5" d="M135.2,30c-1.5,0-2.7-0.9-3-2l-3.5-13.8c-0.1-0.6-0.1-1.1,0.2-1.6l3-5.5c0.4-0.9,1.6-1.5,2.8-1.5h0.6
	c1.2,0,2.2,0.6,2.8,1.5l3,5.3c0.2,0.4,0.3,0.9,0.2,1.5l-3,14C138,29.1,136.8,30,135.2,30z M134.8,6.8c-0.9,0-1.7,0.4-2,1.2l-2.7,5.2
	c-0.1,0.3-0.2,0.8-0.1,1.1l3,12.9c0.2,0.9,1.1,1.6,2.2,1.6s2-0.7,2.2-1.6l2.7-13.1c0.1-0.4,0-0.8-0.1-1.1l-2.7-5
	c-0.3-0.7-1.1-1.1-2-1.1C135.2,6.8,134.8,6.8,134.8,6.8z M135.2,20.2c-0.3,0-0.6-0.2-0.6-0.6v-4.7h-1.6c-0.3,0-0.6-0.2-0.6-0.7
	c0-0.3,0.2-0.7,0.6-0.7h1.6v-1.7c0-0.3,0.2-0.7,0.6-0.7c0.3,0,0.6,0.2,0.6,0.7v1.7h1.7c0.3,0,0.6,0.2,0.6,0.7c0,0.3-0.2,0.7-0.6,0.7
	h-1.7v4.7C135.8,19.9,135.6,20.2,135.2,20.2z"/>
<text transform="matrix(1 0 0 1 145.9076 22.7674)" class="st5 st3 st4">death</text>
</svg>
