<?xml version="1.0" encoding="utf-8"?>
<!-- Generator: Adobe Illustrator 23.0.0, SVG Export Plug-In . SVG Version: 6.00 Build 0)  -->
<svg version="1.1" id="Layer_1" xmlns="http://www.w3.org/2000/svg" xmlns:xlink="http://www.w3.org/1999/xlink" x="0px" y="0px"
	 viewBox="0 0 86 34" style="enable-background:new 0 0 86 34;" xml:space="preserve">
<style type="text/css">
	.st0{fill:#FFFFFF;}
	.st1{font-family:'BennetTextFour-Regular';}
	.st2{font-size:16px;}
</style>
<path class="st0" d="M73.1,31h-60c-5.4,0-9.8-4.4-9.8-9.8V13c0-5.4,4.4-9.8,9.8-9.8h60c5.4,0,9.8,4.4,9.8,9.8v8.2
	C82.9,26.7,78.5,31,73.1,31z"/>
<text transform="matrix(1 0 0 1 33.7864 21.7258)" class="st1 st2">other</text>
<g>
	<g>
		<path d="M14,16c-1-0.3-2.1,0.5-2.1,1.6l0,0c-0.1,0.8,0.2,1.6,1,1.8c0.9,0.2,1.9-0.2,2.3-1C15.6,17.5,15.1,16.4,14,16z"/>
		<path d="M20.2,16C19,15.7,18,16.5,18,17.6l0,0c-0.1,0.8,0.2,1.6,1.1,1.8c0.9,0.2,1.9-0.2,2.3-1C21.6,17.5,21.2,16.4,20.2,16z"/>
		<path d="M26.1,16C25,15.7,24,16.5,24,17.6l0,0c-0.1,0.8,0.2,1.6,1.1,1.8c0.9,0.2,1.9-0.2,2.3-1C27.6,17.5,27.2,16.4,26.1,16z"/>
	</g>
</g>
</svg>
