<?xml version="1.0" encoding="utf-8"?>
<!-- Generator: Adobe Illustrator 23.0.0, SVG Export Plug-In . SVG Version: 6.00 Build 0)  -->
<svg version="1.1" id="Layer_1" xmlns="http://www.w3.org/2000/svg" xmlns:xlink="http://www.w3.org/1999/xlink" x="0px" y="0px"
	 viewBox="0 0 86 34" style="enable-background:new 0 0 86 34;" xml:space="preserve">
<style type="text/css">
	.st0{fill:#FFFFFF;}
	.st1{fill:#27B8EB;}
	.st2{font-family:'BennetTextFour-Regular';}
	.st3{font-size:16px;}
</style>
<path class="st0" d="M73.9,31.2H12.7c-5.4,0-9.8-4.4-9.8-9.8v-8.2c0-5.4,4.4-9.8,9.8-9.8H74c5.4,0,9.8,4.4,9.8,9.8v8.2
	C83.7,26.8,79.3,31.2,73.9,31.2z"/>
<path class="st1" d="M27.8,20.5c0-0.1-0.1-0.3-0.2-0.3c-0.1-0.1-0.3-0.1-0.4-0.1s-3.1,0.2-4.9,2.1c-0.2,0.2-0.4,0.4-0.5,0.6V12.6
	l0,0c0-2.8-2.5-4.9-5.5-4.9l0,0c-2,0-3.6,1-4.5,2.5c-0.8,0.1-1.6,0.4-2.1,1c-0.7,0.6-1.2,1.4-1.3,2.2v0.1v4c0,0.2,0.2,0.4,0.4,0.5
	c0.1,0,0.1,0,0.1,0c0.2,0,0.4-0.1,0.5-0.2l1.6-2.3l0.7,2.2c0.1,0.2,0.3,0.3,0.5,0.3s0.5-0.1,0.5-0.3l0.7-2.2l1.6,2.3
	c0.1,0.2,0.4,0.3,0.6,0.2c0.2-0.1,0.4-0.2,0.4-0.5v-4c0-0.1,0-0.1,0-0.1c-0.1-0.8-0.5-1.7-1.3-2.2c-0.5-0.4-1.3-0.7-2-1
	c0.7-1,1.8-1.5,3.2-1.5c2.4,0,4.3,1.8,4.3,3.9V23c-0.1-0.2-0.3-0.4-0.5-0.6c-1.8-1.9-4.8-2.1-4.9-2.1c-0.1,0-0.3,0-0.4,0.1
	s-0.2,0.2-0.2,0.3c0,0.1-0.1,2.8,1.7,4.7s4.8,2.1,4.9,2.1l0,0l0,0l0,0l0,0c0.1,0,3.1-0.2,4.9-2.1C27.9,23.3,27.8,20.6,27.8,20.5z
	 M15.1,13.4C15.1,13.4,15.1,13.5,15.1,13.4v2.2l-1-1.5c-0.1-0.1-0.3-0.2-0.5-0.2h-0.3c-0.2,0-0.4,0.1-0.5,0.3l-0.5,1.4l-0.5-1.4
	c-0.1-0.2-0.3-0.3-0.5-0.3H11c-0.2,0-0.4,0.1-0.5,0.2l-1,1.5v-2.1c0,0,0,0,0-0.1c0.1-0.6,0.4-1.3,1-1.7c0.5-0.4,1.3-0.6,1.9-0.6
	c0.7,0,1.4,0.2,1.9,0.6C14.7,12.1,15,12.8,15.1,13.4z M16.9,24.4c-1.1-1.1-1.3-2.5-1.4-3.4c0.8,0.2,2.4,0.6,3.5,1.7s1.3,2.5,1.4,3.4
	C19.6,26,18,25.6,16.9,24.4z M25.2,24.4c-1.1,1.1-2.7,1.5-3.5,1.7c0.1-0.8,0.3-2.2,1.4-3.4c1.1-1.2,2.7-1.5,3.5-1.7
	C26.6,21.9,26.3,23.4,25.2,24.4z"/>
<g>
	<text transform="matrix(1 0 0 1 30.4354 22.1161)" class="st1 st2 st3">defeat</text>
</g>
</svg>
