<?xml version="1.0" encoding="utf-8"?>
<!-- Generator: Adobe Illustrator 23.0.0, SVG Export Plug-In . SVG Version: 6.00 Build 0)  -->
<svg version="1.1" id="Layer_1" xmlns="http://www.w3.org/2000/svg" xmlns:xlink="http://www.w3.org/1999/xlink" x="0px" y="0px"
	 viewBox="0 0 106 34" style="enable-background:new 0 0 106 34;" xml:space="preserve">
<style type="text/css">
	.st0{fill:#FFFFFF;}
	.st1{fill:none;stroke:#005BAA;stroke-width:1.2;stroke-miterlimit:10;}
	.st2{fill:#005BAA;}
	.st3{font-family:'BennetTextFour-Regular';}
	.st4{font-size:16px;}
	.st5{fill:#4D4D4F;}
</style>
<path class="st0" d="M94.5,30.4H11.3c-5.4,0-9.8-4.4-9.8-9.8v-8.2c0-5.4,4.4-9.8,9.8-9.8h83.2c5.4,0,9.8,4.4,9.8,9.8v8.2
	C104.3,26.1,99.9,30.4,94.5,30.4z"/>
<g>
	<path class="st1" d="M19.7,20.2l-1.9-1.9l1.1-2.7l-1.8-2l0.8-3.2c-3.8-4.9-7.2-1.3-7.2-1.3c-1.5,1.6-2.5,5.1,2.7,9.3l5,4.1
		L19.7,20.2z"/>
	<path class="st1" d="M31,14.1c0,0-2.9-4.1-7.3,0.2l0.3,3.3l-2,1.7l1.2,2.1L21,25l0.4,1.1l5.6-3.3C32.7,19.5,32.2,15.9,31,14.1z"/>
</g>
<text transform="matrix(1 0 0 1 36.0986 21.3408)" class="st2 st3 st4">breakup</text>
<path class="st0" d="M185.1,28.7h-60c-5.4,0-9.8-4.4-9.8-9.8v-8.2c0-5.4,4.4-9.8,9.8-9.8h60c5.4,0,9.8,4.4,9.8,9.8v8.2
	C194.9,24.3,190.5,28.7,185.1,28.7z"/>
<path class="st5" d="M134.1,27.3c-1.5,0-2.7-0.9-3-2l-3.5-13.8c-0.1-0.6-0.1-1.1,0.2-1.6l3-5.5c0.4-0.9,1.6-1.5,2.8-1.5h0.6
	c1.2,0,2.2,0.6,2.8,1.5l3,5.3c0.2,0.4,0.3,0.9,0.2,1.5l-3,14C136.9,26.4,135.6,27.3,134.1,27.3z M133.6,4.1c-0.9,0-1.7,0.4-2,1.2
	l-2.7,5.2c-0.1,0.3-0.2,0.8-0.1,1.1l3,12.9c0.2,0.9,1.1,1.6,2.2,1.6s2-0.7,2.2-1.6l2.7-13.1c0.1-0.4,0-0.8-0.1-1.1l-2.7-5
	c-0.3-0.7-1.1-1.1-2-1.1C134.1,4.1,133.6,4.1,133.6,4.1z M134.1,17.5c-0.3,0-0.6-0.2-0.6-0.6v-4.7h-1.6c-0.3,0-0.6-0.2-0.6-0.7
	c0-0.3,0.2-0.7,0.6-0.7h1.6V9.2c0-0.3,0.2-0.7,0.6-0.7s0.6,0.2,0.6,0.7v1.7h1.7c0.3,0,0.6,0.2,0.6,0.7c0,0.3-0.2,0.7-0.6,0.7h-1.7
	v4.7C134.6,17.2,134.4,17.5,134.1,17.5z"/>
<text transform="matrix(1 0 0 1 144.7223 20.0659)" class="st5 st3 st4">death</text>
</svg>
