<?xml version="1.0" encoding="utf-8"?>
<!-- Generator: Adobe Illustrator 23.0.0, SVG Export Plug-In . SVG Version: 6.00 Build 0)  -->
<svg version="1.1" id="Layer_1" xmlns="http://www.w3.org/2000/svg" xmlns:xlink="http://www.w3.org/1999/xlink" x="0px" y="0px"
	 viewBox="0 0 77 34" style="enable-background:new 0 0 77 34;" xml:space="preserve">
<style type="text/css">
	.st0{fill:#FFFFFF;}
	.st1{fill:#55479C;}
	.st2{font-family:'BennetTextFour-Regular';}
	.st3{font-size:16px;}
</style>
<path class="st0" d="M64.9,31.5H11.1c-5.4,0-9.8-4.4-9.8-9.8v-8.2c0-5.4,4.4-9.8,9.8-9.8h53.7c5.4,0,9.8,4.4,9.8,9.8v8.2
	C74.6,27.1,70.2,31.5,64.9,31.5z"/>
<g>
	<path class="st1" d="M18.6,5.7L18.6,5.7c-3.6,0-6.4,2.8-6.4,6.3v11.4c0,3.5,2.8,6.3,6.3,6.3h0.1c3.5,0,6.3-2.8,6.3-6.3V12
		C25,8.5,22,5.7,18.6,5.7z M18.7,28.5L18.7,28.5c-3,0-5.4-2.3-5.4-5.2V22l6.4,6.3C19.4,28.5,19,28.5,18.7,28.5z M20.5,28.2L13.3,21
		v-3.5l9.3,9.2C22,27.4,21.4,27.8,20.5,28.2z M23.8,21.7l-2-2l2-2V21.7z M23.8,16.5l-2.6,2.6l-1.9-1.9l2.3-2.2l0,0
		c0.8-0.8,1.3-1.9,1.3-3s-0.5-2.2-1.3-3c-0.9-0.9-2-1.4-3.1-1.4s-2.2,0.5-3,1.3c-0.8,0.8-1.3,1.9-1.3,3s0.5,2.2,1.3,3l0,0l0,0
		l8.3,8.3v0.1c0,1-0.2,1.9-0.7,2.7l-9.8-9.7V12c0-2.9,2.3-5.2,5.2-5.2h0.1c2.9,0,5.2,2.3,5.2,5.2C23.8,12,23.8,16.5,23.8,16.5z
		 M18.6,15.3c-0.9,0-1.7-0.3-2.4-0.9c-0.7-0.6-1-1.5-1-2.3s0.3-1.7,1-2.3C16.3,9.4,16.7,9.2,17,9c0,0.1,0,0.1,0,0.2
		c0,0.5,0.1,0.8,0.5,1c0.2,0.2,0.7,0.5,1,0.5s0.8-0.1,1-0.5c0.1-0.1,0.1-0.5,0-0.6c-0.1-0.1-0.5-0.1-0.6,0c-0.1,0.1-0.3,0.2-0.5,0.2
		c-0.1,0-0.3-0.1-0.5-0.2c-0.1-0.1-0.2-0.3-0.2-0.5s0.1-0.3,0.2-0.5l0,0c0.1,0,0.2,0,0.5,0c0.9,0,1.7,0.3,2.4,0.9
		c0.6,0.6,1,1.5,1,2.3s-0.3,1.7-1,2.3C20.3,14.9,19.5,15.3,18.6,15.3z"/>
	<g>
		<path class="st1" d="M16.6,11.5c0,0.2,0.2,0.5,0.5,0.5c0.2,0,0.5-0.2,0.5-0.5c0-0.2-0.2-0.5-0.5-0.5S16.6,11.2,16.6,11.5z"/>
	</g>
	<g>
		<path class="st1" d="M20.1,12c0.2,0,0.5-0.2,0.5-0.5c0-0.2-0.2-0.5-0.5-0.5c-0.2,0-0.5,0.2-0.5,0.5C19.6,11.8,19.7,12,20.1,12z"/>
	</g>
	<g>
		<path class="st1" d="M17.3,13.5c0,0.2,0.1,0.3,0.3,0.3l0,0c0.1,0.3,0.6,0.6,0.9,0.6c0.5,0,0.8-0.2,0.9-0.6l0,0
			c0.2,0,0.3-0.1,0.3-0.3c0-0.2-0.1-0.3-0.3-0.3l0,0c-0.1-0.3-0.6-0.6-0.9-0.6c-0.5,0-0.8,0.2-0.9,0.6l0,0
			C17.4,13,17.3,13.3,17.3,13.5z M18.6,13.3c0.1,0,0.2,0.1,0.2,0.2s-0.1,0.2-0.2,0.2s-0.2-0.1-0.2-0.2
			C18.3,13.4,18.4,13.3,18.6,13.3z"/>
	</g>
</g>
<text transform="matrix(1 0 0 1 29.1132 22.8297)" class="st1 st2 st3">birth</text>
</svg>
