<?xml version="1.0" encoding="utf-8"?>
<!-- Generator: Adobe Illustrator 23.0.0, SVG Export Plug-In . SVG Version: 6.00 Build 0)  -->
<svg version="1.1" id="Layer_1" xmlns="http://www.w3.org/2000/svg" xmlns:xlink="http://www.w3.org/1999/xlink" x="0px" y="0px"
	 viewBox="0 0 102 34" style="enable-background:new 0 0 102 34;" xml:space="preserve">
<style type="text/css">
	.st0{fill:#FFFFFF;}
	.st1{fill:#F48020;}
	.st2{fill:#F48020;stroke:#F48020;stroke-width:0.1;stroke-miterlimit:10;}
	.st3{font-family:'BennetTextFour-Regular';}
	.st4{font-size:16px;}
</style>
<path class="st0" d="M89.9,31.3H11.7c-5.4,0-9.8-4.4-9.8-9.8v-8.2c0-5.4,4.4-9.8,9.8-9.8h78.2c5.4,0,9.8,4.4,9.8,9.8v8.2
	C99.7,26.9,95.3,31.3,89.9,31.3z"/>
<g>
	<path class="st1" d="M22,14.4c0-0.2-0.2-0.4-0.4-0.4l-1.7-0.2l-0.7-1.7c-0.1-0.2-0.2-0.2-0.5-0.2c-0.2,0-0.4,0.1-0.5,0.2l-0.7,1.7
		l-1.7,0.2c-0.1,0-0.4,0.1-0.4,0.4s0,0.4,0.1,0.6l1.2,1.3l-0.2,1.8c0,0.2,0,0.4,0.2,0.5c0.1,0.1,0.4,0.1,0.5,0l1.6-0.9l1.6,0.9
		c0.1,0,0.1,0,0.2,0c0.1,0,0.2,0,0.2-0.1c0.1-0.1,0.2-0.4,0.2-0.5l-0.2-1.8l1.2-1.3C22,14.9,22.1,14.7,22,14.4z M19.8,15.8
		c-0.1,0.1-0.1,0.2-0.1,0.5l0.1,1.1l-0.9-0.5c-0.1,0-0.1,0-0.2,0c-0.1,0-0.1,0-0.2,0l-0.9,0.5l0.1-1.1c0-0.1,0-0.4-0.1-0.5L16.8,15
		l1-0.1c0.1,0,0.2-0.1,0.4-0.2l0.5-1l0.5,1c0.1,0.1,0.2,0.2,0.4,0.2l0.9,0.1L19.8,15.8z"/>
	<path class="st2" d="M25.1,8.6H12.1c-0.2,0-0.5,0.2-0.5,0.5c0,1.2,0.1,2.3,0.2,3.4c-0.5,0.1-1,0.5-1.3,0.9
		c-0.6,0.6-0.9,1.5-0.9,2.3c0,1.8,1.5,3.2,3.1,3.2H13c0.6,0,1,0.9,1.3,1.2c0.7,1.1,1.7,1.8,2.7,2.3v2.4h-0.7c-0.1,0-0.4,0.1-0.5,0.2
		l-1.2,2.2c-0.1,0.1-0.1,0.4,0,0.6c0.1,0.2,0.2,0.2,0.5,0.2h7.1c0.1,0,0.4-0.1,0.5-0.2c0.1-0.1,0.1-0.4,0-0.5l-1.1-2.1
		c-0.1-0.1-0.2-0.2-0.5-0.2h-1v-2.4c1-0.4,1.8-1.2,2.7-2.3c0.4-0.5,0.7-1.3,1.3-1.2h0.5c1.7,0,3.1-1.5,3.1-3.2
		c0-0.9-0.2-1.7-0.9-2.3c-0.4-0.4-0.9-0.7-1.3-0.9c0.1-1.1,0.2-2.2,0.2-3.4C25.7,8.8,25.5,8.6,25.1,8.6z M13,17.9h-0.5
		c-1.1,0-2.1-1-2.1-2.2c0-0.6,0.2-1.1,0.6-1.6c0.2-0.2,0.5-0.5,0.9-0.5C12.2,15.2,12.7,16.6,13,17.9C13.2,17.9,13,17.9,13,17.9z
		 M20.9,26l0.5,1.1H16l0.6-1.1H20.9z M18.2,24.9v-2.2c0.1,0,0.4,0,0.5,0c0.1,0,0.4,0,0.5,0v2.2H18.2z M18.7,21.6
		c-3.3,0-5.9-5.4-6.1-12.1h12.1C24.5,16.3,21.8,21.6,18.7,21.6z M26.1,14.1c0.4,0.4,0.6,1,0.6,1.6c0,1.2-1,2.2-2.1,2.2h-0.5
		c0,0,0,0-0.1,0c0.5-1.2,1-2.7,1.2-4.3C25.6,13.7,25.9,13.8,26.1,14.1z"/>
</g>
<text transform="matrix(1 0 0 1 30.8534 22.2635)" class="st1 st3 st4">triumph</text>
</svg>
