<?xml version="1.0" encoding="utf-8"?>
<!-- Generator: Adobe Illustrator 23.0.0, SVG Export Plug-In . SVG Version: 6.00 Build 0)  -->
<svg version="1.1" id="Layer_1" xmlns="http://www.w3.org/2000/svg" xmlns:xlink="http://www.w3.org/1999/xlink" x="0px" y="0px"
	 viewBox="0 0 101 34" style="enable-background:new 0 0 101 34;" xml:space="preserve">
<style type="text/css">
	.st0{fill:#FFFFFF;}
	.st1{fill:#48BDA0;stroke:#48BDA0;stroke-width:0.25;stroke-miterlimit:10;}
	.st2{fill:#48BDA0;}
	.st3{fill:#5EC09B;}
	.st4{font-family:'BennetTextFour-Regular';}
	.st5{font-size:16px;}
	.st6{fill:#4D4D4F;}
</style>
<path class="st0" d="M89.8,31.1l-78.6-0.2c-5.4,0-9.7-4.4-9.7-9.8l0-8.2c0-5.4,4.4-9.7,9.8-9.7l78.6,0.2c5.4,0,9.7,4.4,9.7,9.8
	l0,8.2C99.6,26.7,95.2,31.1,89.8,31.1z"/>
<g>
	<path class="st1" d="M18.8,14.9c-1.3,0-2.3,1-2.3,2.3c0,1.3,1,2.3,2.3,2.3c1.3,0,2.3-1,2.3-2.3C21.1,15.9,20,14.9,18.8,14.9z
		 M18.7,19.1c-1,0-1.9-0.8-1.9-1.9s0.8-1.9,1.9-1.9s1.9,0.8,1.9,1.9C20.6,18.3,19.8,19.1,18.7,19.1z"/>
	<path class="st1" d="M19.7,16.6l-0.8,0.4l-0.7-0.7l-0.3,0.3l0.8,0.8c0,0,0.1,0.1,0.2,0.1c0,0,0.1,0,0.1,0l1-0.4L19.7,16.6z"/>
	<path class="st1" d="M27.9,29.2v-0.8c-0.7,0-1.3,0-1.3,0l0-6.3h0.6c0.1,0,0.2-0.1,0.2-0.2v-1.1c0-0.1-0.1-0.2-0.2-0.2l-4.5,0l0-6.4
		h0.8v-0.5h-0.9L19,9.3V9c0,0,0,0,0,0c-0.1-0.1-0.2-0.2-0.3-0.3c0,0.1-0.1,0.1-0.1,0.2v0.4l-3.7,4.3h-0.9V14h0.8l0,6.4l-4.5,0
		c-0.1,0-0.2,0.1-0.2,0.2v1.1c0,0.1,0.1,0.2,0.2,0.2h0.6l0,6.4c0,0-0.1,0-1.2,0l0,0.8L27.9,29.2z M16,12.8l0.4-0.5l0.5-0.5l0.4-0.5
		l0.5-0.6l0.4-0.5l0.6-0.6l0,0.1l1.4,1.7l0.4,0.5l0.5,0.5l0.4,0.5l0.5,0.6l-6.5,0L16,12.8z M15.2,13.9l7,0l0,6.3l-7,0L15.2,13.9z
		 M10.5,21.6v-1l16.5,0v1L10.5,21.6z M19.5,23.9l-1.6,0c-0.3,0.1-0.2,0.7-0.2,0.9l0,3.8l-6.3,0l0-6.8l14.8,0l0,6.8l-6.4,0l0-3.8
		C19.7,24.7,19.7,24.1,19.5,23.9z M19.3,24.3l0,4.1H18l0-4.1H19.3z"/>
	<path class="st1" d="M19.1,9.3V9l3-1.5c0.1,0,0.1-0.1,0.1-0.2s0-0.2-0.1-0.2l-3.1-1.6c-0.1,0-0.2,0-0.2,0c-0.1,0-0.1,0.1-0.1,0.2
		l0,3.5C18.7,9.3,18.9,9.3,19.1,9.3z M19.1,6.1l2.3,1.2L19,8.5L19.1,6.1z"/>
	
		<rect x="12.2" y="25.7" transform="matrix(2.269561e-03 -1 1 2.269561e-03 -13.5369 39.7669)" class="st2" width="1.8" height="1.8"/>
	
		<rect x="12.2" y="23" transform="matrix(2.269561e-03 -1 1 2.269561e-03 -10.7944 37.0536)" class="st2" width="1.8" height="1.8"/>
	
		<rect x="14.7" y="25.8" transform="matrix(2.269561e-03 -1 1 2.269561e-03 -11.1097 42.2225)" class="st2" width="1.8" height="1.8"/>
	<rect x="14.7" y="23" transform="matrix(2.269561e-03 -1 1 2.269561e-03 -8.3786 39.4976)" class="st2" width="1.8" height="1.8"/>
	
		<rect x="20.7" y="25.8" transform="matrix(2.269561e-03 -1 1 2.269561e-03 -5.1333 48.2356)" class="st2" width="1.8" height="1.8"/>
	<rect x="20.7" y="23" transform="matrix(2.269561e-03 -1 1 2.269561e-03 -2.4022 45.5107)" class="st2" width="1.8" height="1.8"/>
	
		<rect x="23.1" y="25.8" transform="matrix(2.269561e-03 -1 1 2.269561e-03 -2.6945 50.6797)" class="st2" width="1.8" height="1.8"/>
	
		<rect x="23.1" y="23" transform="matrix(2.269561e-03 -1 1 2.269561e-03 3.654074e-02 47.9548)" class="st2" width="1.8" height="1.8"/>
</g>
<text transform="matrix(1 2.270000e-03 -2.270000e-03 1 30.6284 22.7562)" class="st3 st4 st5">learning</text>
<path class="st0" d="M174.1,31.3h-60c-5.4,0-9.8-4.4-9.8-9.8v-8.2c0-5.4,4.4-9.8,9.8-9.8h60c5.4,0,9.8,4.4,9.8,9.8v8.2
	C183.9,26.9,179.5,31.3,174.1,31.3z"/>
<path class="st6" d="M123,29.9c-1.5,0-2.7-0.9-3-2l-3.5-13.8c-0.1-0.6-0.1-1.1,0.2-1.6l3-5.5c0.4-0.9,1.6-1.5,2.8-1.5h0.6
	c1.2,0,2.2,0.6,2.8,1.5l3,5.3c0.2,0.4,0.3,0.9,0.2,1.5l-3,14C125.8,29,124.6,29.9,123,29.9z M122.6,6.7c-0.9,0-1.7,0.4-2,1.2
	l-2.7,5.2c-0.1,0.3-0.2,0.8-0.1,1.1l3,12.9c0.2,0.9,1.1,1.6,2.2,1.6s2-0.7,2.2-1.6L128,14c0.1-0.4,0-0.8-0.1-1.1l-2.7-5
	c-0.3-0.7-1.1-1.1-2-1.1C123,6.7,122.6,6.7,122.6,6.7z M123,20c-0.3,0-0.6-0.2-0.6-0.6v-4.7h-1.6c-0.3,0-0.6-0.2-0.6-0.7
	c0-0.3,0.2-0.7,0.6-0.7h1.6v-1.7c0-0.3,0.2-0.7,0.6-0.7c0.3,0,0.6,0.2,0.6,0.7v1.7h1.7c0.3,0,0.6,0.2,0.6,0.7c0,0.3-0.2,0.7-0.6,0.7
	h-1.7v4.7C123.6,19.8,123.4,20,123,20z"/>
<text transform="matrix(1 0 0 1 133.6944 22.6206)" class="st6 st4 st5">death</text>
</svg>
