<?xml version="1.0" encoding="utf-8"?>
<!-- Generator: Adobe Illustrator 23.0.0, SVG Export Plug-In . SVG Version: 6.00 Build 0)  -->
<svg version="1.1" id="Layer_1" xmlns="http://www.w3.org/2000/svg" xmlns:xlink="http://www.w3.org/1999/xlink" x="0px" y="0px"
	 viewBox="0 0 65.4 64.8" style="enable-background:new 0 0 65.4 64.8;" xml:space="preserve">
<g>
	<g>
		<path d="M42.7,5.7c-0.8,0.8-1.7,1.7-2.5,2.5c-2,2-4,4-6,6c-2.4,2.4-4.8,4.8-7.3,7.3c-2.1,2.1-4.2,4.2-6.3,6.3c-1,1-2,2-3.1,3.1
			c0,0,0,0,0,0c-0.9,0.9-0.9,2.4,0,3.3c0.8,0.8,1.7,1.7,2.5,2.5c2,2,4,4,6,6c2.4,2.4,4.8,4.8,7.3,7.3c2.1,2.1,4.2,4.2,6.3,6.3
			c1,1,2,2,3.1,3.1c0,0,0,0,0,0c0.9,0.9,2.5,0.9,3.3,0c0.9-0.9,0.9-2.4,0-3.3c-0.8-0.8-1.7-1.7-2.5-2.5c-2-2-4-4-6-6
			c-2.4-2.4-4.8-4.8-7.3-7.3c-2.1-2.1-4.2-4.2-6.3-6.3c-1-1-2-2.1-3.1-3.1c0,0,0,0,0,0c0,1.1,0,2.2,0,3.3c0.8-0.8,1.7-1.7,2.5-2.5
			c2-2,4-4,6-6c2.4-2.4,4.8-4.8,7.3-7.3c2.1-2.1,4.2-4.2,6.3-6.3c1-1,2-2,3.1-3.1c0,0,0,0,0,0c0.9-0.9,0.9-2.5,0-3.3
			C45.1,4.8,43.6,4.7,42.7,5.7L42.7,5.7z"/>
	</g>
</g>
</svg>
